# xmcd CD database file
#
# Track frame offsets:
#	150
#	20316
#	37215
#	59791
#	80565
#	98778
#	120302
#	138005
#	155241
#	172071
#	198843
#	215182
#	235011
#	246958
#	266298
#	285413
#	298102
#	311138
#
# Disc length: 4349 seconds
#
# Revision: 1
# Processed by: cddbd v1.5.2PL0 Copyright (c) Steve Scherf et al.
# Submitted via: CDex 1.51
#
DISCID=0e10fb12
DTITLE=Syl Johnson - Straight Up
DYEAR=2003
DGENRE=Blues
TTITLE0=Straight Up
TTITLE1=Woman
TTITLE2=Love To See You Dance
TTITLE3=Wake Up Cryin'
TTITLE4=Theme Song
TTITLE5=Money Scream
TTITLE6=Driftin'
TTITLE7=Ms. Fine Brown Frame
TTITLE8=Forever
TTITLE9=Super Serpent
TTITLE10=You're The #1
TTITLE11=You Changed My Mind
TTITLE12=Mississippi Soul Queen
TTITLE13=Easy Baby
TTITLE14=Listen To Me Closely
TTITLE15=Can't Nobody Stop Me Now
TTITLE16=Goodie Goodie Good Times
TTITLE17=Is It Because I'm Back
EXTD=YEAR: 2003
EXTT0=
EXTT1=
EXTT2=
EXTT3=
EXTT4=
EXTT5=
EXTT6=
EXTT7=
EXTT8=
EXTT9=
EXTT10=
EXTT11=
EXTT12=
EXTT13=
EXTT14=
EXTT15=
EXTT16=
EXTT17=
PLAYORDER=
